<svg xmlns="http://www.w3.org/2000/svg" viewBox="0 0 241.22 62.59"><g id="Capa_2" data-name="Capa 2"><g id="Capa_1-2" data-name="Capa 1"><path d="M82.61,19.78S110.07,2.59,139.55,5.71s57.38,13.81,66.67,17.06l10.86-3.1S175.19-1.77,140,.12,82.61,19.78,82.61,19.78Z" style="fill:#29337b"/><path d="M6.33,48.76c0-11.55,8.28-18.32,18.55-17.95,41.92,1.52,130.06,3.3,168,1.52,41.45-1.95,48.3-22.45,48.3-22.45l-18.38,2.59c.07,3.87,8.87,10.53-27.93,13.85C176.47,28,161.25,28.39,48.15,24.77,30,24.19,22,23.68,22,23.68S4.75,24.36.93,36s5.4,18.77,5.4,18.77Z" style="fill:#f2947b"/><path d="M217.08,31l10.51-4.42s19.55,13.64-3.94,36C223.65,62.59,233.68,37.33,217.08,31Z" style="fill:#29337b"/></g></g></svg>