<svg id="Capa_1" data-name="Capa 1" xmlns="http://www.w3.org/2000/svg" viewBox="0 0 209.14 27.94"><path d="M411.86,296.84" transform="translate(-187.46 -323.96)" style="fill:#f08313"/><path d="M411.86,296.84" transform="translate(-187.46 -323.96)" style="fill:none;stroke:#414286;stroke-linecap:round;stroke-miterlimit:10"/><path d="M207.78,350.74a17.41,17.41,0,0,1-6.66,1.12c-9,0-13.66-5.65-13.66-13.08,0-8.86,6.35-13.78,14.24-13.78a16.1,16.1,0,0,1,6.43,1.13l-1.24,4.68a12.51,12.51,0,0,0-5-1c-4.64,0-8.28,2.83-8.28,8.63,0,5.19,3.1,8.47,8.32,8.47a13.93,13.93,0,0,0,5-.85Z" transform="translate(-187.46 -323.96)" style="fill:#29337b"/><path d="M228.44,346.91a24.6,24.6,0,0,0,.31,4.56h-5.3l-.35-1.89H223a6.86,6.86,0,0,1-5.42,2.32,5.8,5.8,0,0,1-6.11-5.81c0-4.91,4.41-7.23,11.1-7.23v-.24c0-1-.54-2.43-3.44-2.43a11,11,0,0,0-5.23,1.39l-1.08-3.75a15.48,15.48,0,0,1,7.35-1.71c6.31,0,8.28,3.72,8.28,8.17Zm-5.68-4.38c-3.1,0-5.5.74-5.5,3a2.12,2.12,0,0,0,2.32,2.25,3.26,3.26,0,0,0,3.06-2.17,4.11,4.11,0,0,0,.12-1Z" transform="translate(-187.46 -323.96)" style="fill:#29337b"/><path d="M234.72,338.78c0-2.79,0-4.61-.16-6.23h5l.23,3.52H240a5.53,5.53,0,0,1,5.11-3.95,5.73,5.73,0,0,1,1.24.12v5.53a9.66,9.66,0,0,0-1.59-.15,3.75,3.75,0,0,0-4,3,7.29,7.29,0,0,0-.11,1.31v9.56h-5.88Z" transform="translate(-187.46 -323.96)" style="fill:#29337b"/><path d="M251,346.33a11.6,11.6,0,0,0,5.07,1.39c1.78,0,2.52-.58,2.52-1.55s-.59-1.47-2.75-2.17c-3.95-1.31-5.46-3.44-5.42-5.65,0-3.56,3-6.23,7.7-6.23a12.41,12.41,0,0,1,5.3,1.13l-1,4a10.05,10.05,0,0,0-4.11-1c-1.43,0-2.24.58-2.24,1.5s.74,1.4,3.06,2.17c3.6,1.24,5.07,3.06,5.11,5.81,0,3.56-2.75,6.15-8.17,6.15a13.25,13.25,0,0,1-6.11-1.36Z" transform="translate(-187.46 -323.96)" style="fill:#29337b"/><path d="M285.14,346.91a24.6,24.6,0,0,0,.31,4.56h-5.3l-.35-1.89h-.11a6.86,6.86,0,0,1-5.42,2.32,5.81,5.81,0,0,1-6.12-5.81c0-4.91,4.42-7.23,11.11-7.23v-.24c0-1-.54-2.43-3.44-2.43a11,11,0,0,0-5.23,1.39l-1.08-3.75a15.45,15.45,0,0,1,7.35-1.71c6.31,0,8.28,3.72,8.28,8.17Zm-5.69-4.38c-3.09,0-5.49.74-5.49,3a2.11,2.11,0,0,0,2.32,2.25,3.26,3.26,0,0,0,3.06-2.17,4.12,4.12,0,0,0,.11-1Z" transform="translate(-187.46 -323.96)" style="fill:#f2947b"/><path d="M308.48,324v21.86c0,2.13.08,4.38.15,5.65h-5.22l-.23-2.75h-.12a6.61,6.61,0,0,1-5.92,3.18c-4.49,0-8.09-3.83-8.09-9.71,0-6.35,3.95-10.07,8.48-10.07,2.36,0,4.14.86,5,2.13h.08V324ZM302.6,340.6a4.87,4.87,0,0,0-.08-1.08,3.51,3.51,0,0,0-3.44-2.87c-2.71,0-4.07,2.4-4.07,5.38,0,3.17,1.59,5.19,4,5.19a3.49,3.49,0,0,0,3.44-2.83,6.71,6.71,0,0,0,.12-1.31Z" transform="translate(-187.46 -323.96)" style="fill:#f2947b"/><path d="M317.89,332.55l2.55,8.78c.46,1.59.77,3.1,1.08,4.61h.12c.31-1.55.62-3,1-4.61l2.44-8.78h6.19l-7,18.92h-5.88l-6.89-18.92Z" transform="translate(-187.46 -323.96)" style="fill:#f2947b"/><path d="M337.24,330.23a2.95,2.95,0,1,1,3.17-2.94,2.9,2.9,0,0,1-3.17,2.94Zm-2.91,21.24V332.55h5.89v18.92Z" transform="translate(-187.46 -323.96)" style="fill:#f2947b"/><path d="M345.21,346.33a11.6,11.6,0,0,0,5.07,1.39c1.78,0,2.51-.58,2.51-1.55s-.58-1.47-2.74-2.17c-3.95-1.31-5.46-3.44-5.42-5.65,0-3.56,3-6.23,7.7-6.23a12.44,12.44,0,0,1,5.3,1.13l-1,4a10,10,0,0,0-4.1-1c-1.43,0-2.24.58-2.24,1.5s.73,1.4,3.05,2.17c3.6,1.24,5.07,3.06,5.11,5.81,0,3.56-2.74,6.15-8.16,6.15a13.33,13.33,0,0,1-6.12-1.36Z" transform="translate(-187.46 -323.96)" style="fill:#f2947b"/><path d="M371.06,351.9c-5.53,0-9.79-3.64-9.79-9.75s4-10,10.14-10c5.76,0,9.63,4,9.63,9.72,0,6.88-4.91,10.06-9.94,10.06Zm.15-4.22c2.33,0,3.76-2.28,3.76-5.69,0-2.78-1.09-5.65-3.76-5.65s-3.86,2.87-3.86,5.69c0,3.21,1.35,5.65,3.83,5.65Z" transform="translate(-187.46 -323.96)" style="fill:#f2947b"/><path d="M385,338.78c0-2.79,0-4.61-.15-6.23h5l.23,3.52h.16a5.4,5.4,0,0,1,6.34-3.83v5.53a9.53,9.53,0,0,0-1.58-.15,3.75,3.75,0,0,0-4,3,7.29,7.29,0,0,0-.11,1.31v9.56H385Z" transform="translate(-187.46 -323.96)" style="fill:#f2947b"/></svg>