<svg xmlns="http://www.w3.org/2000/svg" viewBox="0 0 241.22 62.59"><g id="Capa_2" data-name="Capa 2"><g id="Capa_1-2" data-name="Capa 1"><path d="M82.61,19.78S110.07,2.59,139.55,5.71s57.38,13.81,66.67,17.06l10.86-3.1S175.19-1.77,140,.12,82.61,19.78,82.61,19.78Z" style="fill:#29337b"/><path d="M6.33,48.76c0-11.55,8.28-18.32,18.55-17.95,41.92,1.52,130.06,3.3,168,1.52,41.45-1.95,48.3-22.45,48.3-22.45l-18.38,2.59c.07,3.87,8.87,10.53-27.93,13.85C176.47,28,161.25,28.39,48.15,24.77,30,24.19,22,23.68,22,23.68S4.75,24.36.93,36s5.4,18.77,5.4,18.77Z" style="fill:#f2947b"/><path d="M217.08,31l10.51-4.42s19.55,13.64-3.94,36C223.65,62.59,233.68,37.33,217.08,31Z" style="fill:#29337b"/><path d="M31.74,61.43a17.12,17.12,0,0,1-6.66,1.13c-9,0-13.66-5.65-13.66-13.08,0-8.87,6.35-13.78,14.24-13.78a16.32,16.32,0,0,1,6.43,1.12L30.85,41.5a12.47,12.47,0,0,0-5-1c-4.65,0-8.28,2.82-8.28,8.63,0,5.18,3.09,8.47,8.32,8.47a14.14,14.14,0,0,0,4.95-.85Z" style="fill:#29337b"/><path d="M52.41,57.6a23.94,23.94,0,0,0,.31,4.57h-5.3l-.35-1.9H47a6.81,6.81,0,0,1-5.42,2.32,5.79,5.79,0,0,1-6.11-5.8c0-4.91,4.41-7.24,11.11-7.24v-.23c0-1-.55-2.44-3.45-2.44a11,11,0,0,0-5.22,1.4l-1.09-3.76a15.64,15.64,0,0,1,7.36-1.7c6.3,0,8.28,3.72,8.28,8.17Zm-5.69-4.37c-3.1,0-5.5.73-5.5,3a2.11,2.11,0,0,0,2.33,2.24,3.23,3.23,0,0,0,3.05-2.16,4.11,4.11,0,0,0,.12-1Z" style="fill:#29337b"/><path d="M58.68,49.48c0-2.79,0-4.61-.16-6.23h5l.24,3.52h.15a5.51,5.51,0,0,1,5.11-4,5.73,5.73,0,0,1,1.24.12v5.53a8.68,8.68,0,0,0-1.59-.15,3.74,3.74,0,0,0-4,3,6.53,6.53,0,0,0-.12,1.32v9.56H58.68Z" style="fill:#29337b"/><path d="M74.93,57A11.5,11.5,0,0,0,80,58.42c1.78,0,2.52-.59,2.52-1.55s-.58-1.47-2.75-2.17c-4-1.32-5.46-3.44-5.42-5.65,0-3.56,3-6.23,7.7-6.23a12.42,12.42,0,0,1,5.3,1.12l-1,4a10,10,0,0,0-4.1-1c-1.43,0-2.25.58-2.25,1.51s.74,1.39,3.06,2.17c3.6,1.24,5.07,3.06,5.11,5.8,0,3.56-2.75,6.16-8.17,6.16a13.28,13.28,0,0,1-6.11-1.36Z" style="fill:#29337b"/><path d="M109.1,57.6a24.79,24.79,0,0,0,.31,4.57h-5.3l-.35-1.9h-.11a6.81,6.81,0,0,1-5.42,2.32,5.79,5.79,0,0,1-6.11-5.8c0-4.91,4.41-7.24,11.1-7.24v-.23c0-1-.54-2.44-3.44-2.44a11,11,0,0,0-5.23,1.4l-1.08-3.76a15.63,15.63,0,0,1,7.35-1.7c6.31,0,8.28,3.72,8.28,8.17Zm-5.68-4.37c-3.1,0-5.5.73-5.5,3a2.11,2.11,0,0,0,2.32,2.24,3.25,3.25,0,0,0,3.06-2.16,4.11,4.11,0,0,0,.12-1Z" style="fill:#f2947b"/><path d="M132.44,34.66V56.52c0,2.13.08,4.37.16,5.65h-5.23l-.23-2.75H127a6.6,6.6,0,0,1-5.92,3.17c-4.49,0-8.08-3.83-8.08-9.71,0-6.34,3.94-10.06,8.47-10.06,2.36,0,4.14.85,5,2.13h.08V34.66Zm-5.88,16.63a5,5,0,0,0-.08-1.08A3.5,3.5,0,0,0,123,47.35c-2.71,0-4.06,2.4-4.06,5.38,0,3.17,1.58,5.18,4,5.18a3.48,3.48,0,0,0,3.44-2.82,6.74,6.74,0,0,0,.12-1.32Z" style="fill:#f2947b"/><path d="M141.85,43.25,144.4,52c.47,1.59.78,3.1,1.09,4.6h.11c.31-1.54.62-3,1.05-4.6l2.43-8.78h6.2l-7.05,18.92h-5.88l-6.89-18.92Z" style="fill:#f2947b"/><path d="M161.2,40.92A2.95,2.95,0,1,1,164.37,38a2.9,2.9,0,0,1-3.17,2.94Zm-2.9,21.25V43.25h5.88V62.17Z" style="fill:#f2947b"/><path d="M169.17,57a11.46,11.46,0,0,0,5.07,1.4c1.78,0,2.52-.59,2.52-1.55s-.58-1.47-2.75-2.17c-3.95-1.32-5.46-3.44-5.42-5.65,0-3.56,3-6.23,7.7-6.23a12.42,12.42,0,0,1,5.3,1.12l-1,4a10,10,0,0,0-4.1-1c-1.44,0-2.25.58-2.25,1.51s.74,1.39,3.06,2.17c3.6,1.24,5.07,3.06,5.1,5.8,0,3.56-2.74,6.16-8.16,6.16a13.25,13.25,0,0,1-6.11-1.36Z" style="fill:#f2947b"/><path d="M195,62.59c-5.53,0-9.79-3.63-9.79-9.75s4-10,10.14-10c5.77,0,9.64,4,9.64,9.71,0,6.89-4.92,10.06-9.95,10.06Zm.16-4.21c2.32,0,3.75-2.29,3.75-5.69,0-2.79-1.08-5.65-3.75-5.65s-3.87,2.86-3.87,5.69c0,3.21,1.35,5.65,3.83,5.65Z" style="fill:#f2947b"/><path d="M209,49.48c0-2.79,0-4.61-.16-6.23h5l.24,3.52h.15a5.51,5.51,0,0,1,5.11-4,5.73,5.73,0,0,1,1.24.12v5.53a8.68,8.68,0,0,0-1.59-.15,3.75,3.75,0,0,0-4,3,7.4,7.4,0,0,0-.11,1.32v9.56H209Z" style="fill:#f2947b"/></g></g></svg>